<svg xmlns="http://www.w3.org/2000/svg" xmlns:xlink="http://www.w3.org/1999/xlink" width="15.419" height="15.419" viewBox="0 0 15.419 15.419">
  <defs>
    <clipPath id="clip-path">
      <rect id="Rectangle_21" data-name="Rectangle 21" width="15.419" height="15.419" fill="#fff"/>
    </clipPath>
  </defs>
  <g id="Mask_Group_4" data-name="Mask Group 4" transform="translate(0 0)" clip-path="url(#clip-path)">
    <g id="facebook-logo" transform="translate(3.541)">
      <path id="Path_18" data-name="Path 18" d="M13.075,0l-2,0a3.512,3.512,0,0,0-3.7,3.795v1.75H5.367a.314.314,0,0,0-.314.315V8.394a.314.314,0,0,0,.314.314h2.01v6.4a.314.314,0,0,0,.314.314h2.623a.314.314,0,0,0,.314-.314v-6.4H12.98a.314.314,0,0,0,.314-.314V5.859a.315.315,0,0,0-.315-.315H10.63V4.061c0-.713.17-1.075,1.1-1.075h1.347a.314.314,0,0,0,.314-.314V.318A.315.315,0,0,0,13.075,0Z" transform="translate(-5.053)" fill="#fff"/>
    </g>
  </g>
</svg>
