<svg xmlns="http://www.w3.org/2000/svg" xmlns:xlink="http://www.w3.org/1999/xlink" width="41.352" height="41.352" viewBox="0 0 41.352 41.352">
  <defs>
    <clipPath id="clip-path">
      <rect id="Rectangle_9" data-name="Rectangle 9" width="41.351" height="41.351" fill="#fff" stroke="#fff" stroke-width="1"/>
    </clipPath>
  </defs>
  <g id="Mask_Group_1" data-name="Mask Group 1" transform="translate(0 0)" clip-path="url(#clip-path)">
    <g id="mental-health" transform="translate(2.758 0)">
      <path id="Path_1" data-name="Path 1" d="M34.739,10.587A18.261,18.261,0,0,0,19.3.061L18.626,0l-.6.015A14.245,14.245,0,0,0,12.1,1.548,14.4,14.4,0,0,0,4.141,14.477v2.566L.1,23.77A.689.689,0,0,0,.7,24.813H5.009l-.418,6.211a3.421,3.421,0,0,0,2.723,3.946.668.668,0,0,0,.138.014.648.648,0,0,0,.074,0l4.2-.455v6.137a.689.689,0,0,0,.689.689H28.948a.689.689,0,0,0,.689-.689V33.814l5.385-13.3A13.361,13.361,0,0,0,34.739,10.587Zm-1.005,9.43-5.425,13.4a.68.68,0,0,0-.042.309c0,.015-.008.026-.008.041v6.2H13.1v-6.2c0-.015-.008-.026-.008-.041s.006-.03,0-.046a.741.741,0,0,0-.037-.117.783.783,0,0,0-.027-.085.676.676,0,0,0-.111-.168c-.008-.01-.012-.022-.02-.032l-.018-.012a.683.683,0,0,0-.546-.2L7.486,33.6a2.074,2.074,0,0,1-1.528-2.412l.475-7.015a.689.689,0,0,0-.639-.736H1.914l3.508-5.847a.418.418,0,0,0,.016-.044.657.657,0,0,0,.046-.13.674.674,0,0,0,.027-.138c0-.016.009-.03.009-.046V14.472a13.034,13.034,0,0,1,7.2-11.7,12.873,12.873,0,0,1,5.361-1.387h.546A16.921,16.921,0,0,1,33.479,11.14,11.977,11.977,0,0,1,33.734,20.017Zm0,0" transform="translate(-0.006 0)" fill="#fff"/>
      <path id="Path_2" data-name="Path 2" d="M23.174,9.52a6.2,6.2,0,0,0-8.4,9.111l7.8,7.8a.69.69,0,0,0,.487.2.7.7,0,0,0,.118-.01.7.7,0,0,0,.118.01.689.689,0,0,0,.487-.2l7.8-7.8a6.2,6.2,0,0,0-8.4-9.111ZM30.6,17.656l-7.427,7.427-7.427-7.427a4.824,4.824,0,0,1,6.821-6.822l.118.119a.708.708,0,0,0,.976,0l.117-.118A4.824,4.824,0,0,1,30.6,17.657Zm0,0" transform="translate(-3.88 -2.406)" fill="#fff"/>
      <path id="Path_3" data-name="Path 3" d="M31.191,16.925H28.705l-1.983-3.767a.674.674,0,0,0-.639-.368.688.688,0,0,0-.605.421l-2.205,5.244L21.688,13.94a.689.689,0,0,0-.573-.456.674.674,0,0,0-.661.316L18.48,16.925H17.41a.689.689,0,0,0,0,1.378h1.45a.687.687,0,0,0,.583-.321l1.412-2.241,1.7,4.857a.689.689,0,0,0,.632.461h.022a.688.688,0,0,0,.635-.421l2.335-5.547,1.5,2.845a.688.688,0,0,0,.61.368h2.9a.689.689,0,0,0,0-1.378Zm0,0" transform="translate(-5.006 -3.826)" fill="#fff"/>
    </g>
  </g>
</svg>
