<svg xmlns="http://www.w3.org/2000/svg" xmlns:xlink="http://www.w3.org/1999/xlink" width="21.026" height="21.026" viewBox="0 0 21.026 21.026">
  <defs>
    <clipPath id="clip-path">
      <rect id="Rectangle_29" data-name="Rectangle 29" width="21.026" height="21.026" fill="#464646" stroke="#707070" stroke-width="1"/>
    </clipPath>
  </defs>
  <g id="Mask_Group_7" data-name="Mask Group 7" transform="translate(0 0)" clip-path="url(#clip-path)">
    <g id="call-answer" transform="translate(0 0.024)">
      <g id="Group_55" data-name="Group 55">
        <g id="Group_54" data-name="Group 54">
          <path id="Path_34" data-name="Path 34" d="M20.555,16.627l-3.247-3.248a1.693,1.693,0,0,0-2.387.045L13.285,15.06l-.323-.18a16.28,16.28,0,0,1-3.935-2.846A16.37,16.37,0,0,1,6.175,8.093c-.061-.11-.119-.215-.176-.315l1.1-1.1.54-.54A1.692,1.692,0,0,0,7.68,3.753L4.433.505A1.691,1.691,0,0,0,2.046.55l-.915.92.025.025A5.292,5.292,0,0,0,.4,2.825,5.515,5.515,0,0,0,.066,4.175c-.429,3.555,1.2,6.8,5.6,11.211,6.094,6.093,11,5.633,11.216,5.61a5.487,5.487,0,0,0,1.353-.34,5.274,5.274,0,0,0,1.325-.751l.02.018.927-.908A1.7,1.7,0,0,0,20.555,16.627Z" transform="translate(0 -0.034)" fill="#464646"/>
        </g>
      </g>
    </g>
  </g>
</svg>
