<svg width="369" height="128" viewBox="0 0 369 128" fill="none" xmlns="http://www.w3.org/2000/svg">
<path d="M7.896 62.104C7.07467 62.104 6.384 61.824 5.824 61.264C5.30133 60.7413 5.04 60.0693 5.04 59.248V33.712C5.07733 30.7627 5.768 28.112 7.112 25.76C8.456 23.408 10.2853 21.56 12.6 20.216C14.9147 18.8347 17.528 18.144 20.44 18.144C23.3893 18.144 26.0213 18.8347 28.336 20.216C30.6507 21.56 32.48 23.408 33.824 25.76C35.2053 28.112 35.896 30.7627 35.896 33.712C35.896 36.6613 35.2613 39.312 33.992 41.664C32.76 43.9787 31.0613 45.8267 28.896 47.208C26.7307 48.552 24.2853 49.224 21.56 49.224C19.3573 49.224 17.3227 48.776 15.456 47.88C13.6267 46.9467 12.0587 45.696 10.752 44.128V59.248C10.752 60.0693 10.4907 60.7413 9.968 61.264C9.44533 61.824 8.75467 62.104 7.896 62.104ZM20.44 44.184C22.344 44.184 24.0427 43.736 25.536 42.84C27.0293 41.9067 28.2053 40.656 29.064 39.088C29.96 37.4827 30.408 35.6907 30.408 33.712C30.408 31.696 29.96 29.904 29.064 28.336C28.2053 26.7307 27.0293 25.48 25.536 24.584C24.0427 23.6507 22.344 23.184 20.44 23.184C18.5733 23.184 16.8747 23.6507 15.344 24.584C13.8507 25.48 12.6747 26.7307 11.816 28.336C10.9573 29.904 10.528 31.696 10.528 33.712C10.528 35.6907 10.9573 37.4827 11.816 39.088C12.6747 40.656 13.8507 41.9067 15.344 42.84C16.8747 43.736 18.5733 44.184 20.44 44.184ZM58.303 49.224C55.279 49.224 52.6097 48.5707 50.295 47.264C47.9803 45.92 46.151 44.0907 44.807 41.776C43.5003 39.424 42.847 36.736 42.847 33.712C42.847 30.6507 43.5003 27.9627 44.807 25.648C46.151 23.296 47.9803 21.4667 50.295 20.16C52.6097 18.816 55.279 18.144 58.303 18.144C61.2897 18.144 63.9403 18.816 66.255 20.16C68.5697 21.4667 70.3803 23.296 71.687 25.648C73.031 27.9627 73.703 30.6507 73.703 33.712C73.703 36.736 73.0497 39.424 71.743 41.776C70.4363 44.0907 68.6257 45.92 66.311 47.264C63.9963 48.5707 61.327 49.224 58.303 49.224ZM58.303 44.184C60.2443 44.184 61.9617 43.736 63.455 42.84C64.9483 41.944 66.1057 40.712 66.927 39.144C67.7857 37.576 68.215 35.7653 68.215 33.712C68.215 31.6587 67.7857 29.848 66.927 28.28C66.1057 26.6747 64.9483 25.424 63.455 24.528C61.9617 23.632 60.2443 23.184 58.303 23.184C56.3617 23.184 54.6443 23.632 53.151 24.528C51.6577 25.424 50.4817 26.6747 49.623 28.28C48.7643 29.848 48.335 31.6587 48.335 33.712C48.335 35.7653 48.7643 37.576 49.623 39.144C50.4817 40.712 51.6577 41.944 53.151 42.84C54.6443 43.736 56.3617 44.184 58.303 44.184ZM87.5648 49C86.9674 49 86.4074 48.832 85.8848 48.496C85.3994 48.1227 85.0634 47.6747 84.8768 47.152L76.5888 22.288C76.2901 21.1307 76.2901 20.1973 76.5888 19.488C76.9248 18.7413 77.6341 18.368 78.7168 18.368C79.4261 18.368 80.0048 18.5733 80.4528 18.984C80.9381 19.3573 81.3301 20.0107 81.6288 20.944L87.6768 39.816L93.3888 20.496C93.5754 19.8613 93.8928 19.3573 94.3408 18.984C94.7888 18.5733 95.4048 18.368 96.1888 18.368C96.9354 18.368 97.5328 18.5733 97.9808 18.984C98.4661 19.3573 98.7834 19.8613 98.9328 20.496L103.973 40.208L110.133 20.944C110.655 19.2267 111.626 18.368 113.045 18.368C114.09 18.368 114.799 18.7413 115.173 19.488C115.546 20.1973 115.527 21.1307 115.117 22.288L106.829 47.152C106.679 47.6747 106.362 48.1227 105.877 48.496C105.391 48.832 104.831 49 104.197 49C103.599 49 103.039 48.832 102.517 48.496C101.994 48.1227 101.658 47.6747 101.509 47.152L96.0208 26.824L90.2527 47.152C90.1034 47.6747 89.7674 48.1227 89.2448 48.496C88.7594 48.832 88.1994 49 87.5648 49ZM134.549 49.224C131.451 49.224 128.688 48.5707 126.261 47.264C123.872 45.92 121.987 44.0907 120.605 41.776C119.261 39.424 118.589 36.736 118.589 33.712C118.589 30.6507 119.224 27.9627 120.493 25.648C121.8 23.296 123.592 21.4667 125.869 20.16C128.147 18.816 130.76 18.144 133.709 18.144C136.621 18.144 139.123 18.7973 141.213 20.104C143.304 21.3733 144.891 23.1467 145.973 25.424C147.093 27.664 147.653 30.2587 147.653 33.208C147.653 33.9173 147.411 34.5147 146.925 35C146.44 35.448 145.824 35.672 145.077 35.672H123.797C124.208 38.248 125.384 40.3573 127.325 42C129.304 43.6053 131.712 44.408 134.549 44.408C135.707 44.408 136.883 44.2027 138.077 43.792C139.309 43.344 140.299 42.84 141.045 42.28C141.605 41.8693 142.203 41.664 142.837 41.664C143.509 41.6267 144.088 41.8133 144.573 42.224C145.208 42.784 145.544 43.4 145.581 44.072C145.619 44.744 145.32 45.3227 144.685 45.808C143.416 46.816 141.829 47.6373 139.925 48.272C138.059 48.9067 136.267 49.224 134.549 49.224ZM133.709 22.96C130.947 22.96 128.725 23.7253 127.045 25.256C125.365 26.7867 124.301 28.7653 123.853 31.192H142.501C142.165 28.8027 141.251 26.8427 139.757 25.312C138.264 23.744 136.248 22.96 133.709 22.96ZM157.738 49C155.872 49 154.938 48.0667 154.938 46.2V21.168C154.938 19.3013 155.872 18.368 157.738 18.368C159.605 18.368 160.538 19.3013 160.538 21.168V22.232C161.658 20.9253 163.021 19.8987 164.626 19.152C166.269 18.4053 168.042 18.032 169.946 18.032C172.186 18.032 173.848 18.4053 174.93 19.152C176.05 19.8613 176.48 20.72 176.218 21.728C176.032 22.512 175.658 23.0347 175.098 23.296C174.538 23.52 173.885 23.5573 173.138 23.408C170.749 22.9227 168.602 22.8853 166.698 23.296C164.794 23.7067 163.282 24.472 162.162 25.592C161.08 26.712 160.538 28.1307 160.538 29.848V46.2C160.538 48.0667 159.605 49 157.738 49Z" fill="#0076BE"/>
<path d="M211.584 49C209.531 48.9627 207.701 48.496 206.096 47.6C204.491 46.6667 203.24 45.3973 202.344 43.792C201.448 42.1493 201 40.3013 201 38.248V22.512H196.632C196.184 22.512 195.811 22.3813 195.512 22.12C195.251 21.8213 195.12 21.448 195.12 21C195.12 20.552 195.251 20.1973 195.512 19.936C195.811 19.6373 196.184 19.488 196.632 19.488H201V10.36C201 9.83733 201.149 9.42666 201.448 9.128C201.784 8.792 202.195 8.624 202.68 8.624C203.203 8.624 203.613 8.792 203.912 9.128C204.248 9.42666 204.416 9.83733 204.416 10.36V19.488H211.808C212.256 19.488 212.611 19.6373 212.872 19.936C213.171 20.1973 213.32 20.552 213.32 21C213.32 21.448 213.171 21.8213 212.872 22.12C212.611 22.3813 212.256 22.512 211.808 22.512H204.416V38.248C204.416 40.4133 205.088 42.1867 206.432 43.568C207.776 44.912 209.512 45.584 211.64 45.584H212.872C213.395 45.584 213.805 45.752 214.104 46.088C214.44 46.3867 214.608 46.7973 214.608 47.32C214.608 47.8053 214.44 48.216 214.104 48.552C213.805 48.8507 213.395 49 212.872 49H211.584ZM235.626 49.336C232.639 49.336 229.951 48.664 227.562 47.32C225.21 45.9387 223.343 44.072 221.962 41.72C220.618 39.3307 219.946 36.6613 219.946 33.712C219.946 30.7253 220.618 28.056 221.962 25.704C223.343 23.3147 225.21 21.448 227.562 20.104C229.951 18.7227 232.639 18.032 235.626 18.032C238.613 18.032 241.282 18.7227 243.634 20.104C245.986 21.448 247.834 23.3147 249.178 25.704C250.559 28.056 251.25 30.7253 251.25 33.712C251.25 36.6613 250.559 39.3307 249.178 41.72C247.834 44.072 245.986 45.9387 243.634 47.32C241.282 48.664 238.613 49.336 235.626 49.336ZM235.626 46.2C237.978 46.2 240.069 45.6587 241.898 44.576C243.765 43.456 245.221 41.9627 246.266 40.096C247.349 38.192 247.89 36.064 247.89 33.712C247.89 31.3227 247.349 29.1947 246.266 27.328C245.221 25.424 243.765 23.9307 241.898 22.848C240.069 21.728 237.978 21.168 235.626 21.168C233.311 21.168 231.221 21.728 229.354 22.848C227.487 23.9307 226.013 25.424 224.93 27.328C223.847 29.1947 223.306 31.3227 223.306 33.712C223.306 36.064 223.847 38.192 224.93 40.096C226.013 41.9627 227.487 43.456 229.354 44.576C231.221 45.6587 233.311 46.2 235.626 46.2Z" fill="#0076BE"/>
<path d="M282.32 49C280.677 49 279.221 48.552 277.952 47.656C276.683 46.76 275.693 45.5467 274.984 44.016C274.275 42.448 273.92 40.656 273.92 38.64V8.064C273.92 7.24267 274.181 6.57067 274.704 6.048C275.227 5.52533 275.899 5.264 276.72 5.264C277.541 5.264 278.213 5.52533 278.736 6.048C279.259 6.57067 279.52 7.24267 279.52 8.064V38.64C279.52 40.0213 279.781 41.16 280.304 42.056C280.827 42.952 281.499 43.4 282.32 43.4H283.72C284.467 43.4 285.064 43.6613 285.512 44.184C285.997 44.7067 286.24 45.3787 286.24 46.2C286.24 47.0213 285.885 47.6933 285.176 48.216C284.467 48.7387 283.552 49 282.432 49H282.32ZM295.245 49C294.424 49 293.733 48.7387 293.173 48.216C292.65 47.656 292.389 46.9653 292.389 46.144V21.224C292.389 20.3653 292.65 19.6747 293.173 19.152C293.733 18.6293 294.424 18.368 295.245 18.368C296.104 18.368 296.794 18.6293 297.317 19.152C297.84 19.6747 298.101 20.3653 298.101 21.224V46.144C298.101 46.9653 297.84 47.656 297.317 48.216C296.794 48.7387 296.104 49 295.245 49ZM295.245 13.384C294.237 13.384 293.36 13.0293 292.613 12.32C291.904 11.5733 291.549 10.696 291.549 9.688C291.549 8.68 291.904 7.82133 292.613 7.112C293.36 6.36533 294.237 5.992 295.245 5.992C296.253 5.992 297.112 6.36533 297.821 7.112C298.568 7.82133 298.941 8.68 298.941 9.688C298.941 10.696 298.568 11.5733 297.821 12.32C297.112 13.0293 296.253 13.384 295.245 13.384ZM319.088 48.944C317.93 48.944 317.034 48.328 316.4 47.096L304.528 22.064C304.229 21.4293 304.192 20.8133 304.416 20.216C304.677 19.5813 305.162 19.096 305.872 18.76C306.506 18.424 307.141 18.368 307.776 18.592C308.448 18.816 308.952 19.2453 309.288 19.88L319.032 40.88L328.664 19.88C329 19.2453 329.504 18.816 330.176 18.592C330.885 18.368 331.594 18.424 332.304 18.76C332.976 19.0587 333.424 19.5253 333.648 20.16C333.872 20.7947 333.834 21.4293 333.536 22.064L321.664 47.096C321.104 48.328 320.245 48.944 319.088 48.944ZM352.705 49.224C349.607 49.224 346.844 48.5707 344.417 47.264C342.028 45.92 340.143 44.0907 338.761 41.776C337.417 39.424 336.745 36.736 336.745 33.712C336.745 30.6507 337.38 27.9627 338.649 25.648C339.956 23.296 341.748 21.4667 344.025 20.16C346.303 18.816 348.916 18.144 351.865 18.144C354.777 18.144 357.279 18.7973 359.369 20.104C361.46 21.3733 363.047 23.1467 364.129 25.424C365.249 27.664 365.809 30.2587 365.809 33.208C365.809 33.9173 365.567 34.5147 365.081 35C364.596 35.448 363.98 35.672 363.233 35.672H341.953C342.364 38.248 343.54 40.3573 345.481 42C347.46 43.6053 349.868 44.408 352.705 44.408C353.863 44.408 355.039 44.2027 356.233 43.792C357.465 43.344 358.455 42.84 359.201 42.28C359.761 41.8693 360.359 41.664 360.993 41.664C361.665 41.6267 362.244 41.8133 362.729 42.224C363.364 42.784 363.7 43.4 363.737 44.072C363.775 44.744 363.476 45.3227 362.841 45.808C361.572 46.816 359.985 47.6373 358.081 48.272C356.215 48.9067 354.423 49.224 352.705 49.224ZM351.865 22.96C349.103 22.96 346.881 23.7253 345.201 25.256C343.521 26.7867 342.457 28.7653 342.009 31.192H360.657C360.321 28.8027 359.407 26.8427 357.913 25.312C356.42 23.744 354.404 22.96 351.865 22.96Z" fill="#D864A7"/>
<path d="M34.24 115C33.7547 115 33.344 114.851 33.008 114.552C32.7093 114.216 32.56 113.805 32.56 113.32V88.512H28.192C27.744 88.512 27.3707 88.3813 27.072 88.12C26.8107 87.8213 26.68 87.448 26.68 87C26.68 86.552 26.8107 86.1973 27.072 85.936C27.3707 85.6373 27.744 85.488 28.192 85.488H32.56V84.312C32.56 81.7733 32.952 79.5333 33.736 77.592C34.52 75.6133 35.7333 74.064 37.376 72.944C39.056 71.824 41.184 71.264 43.76 71.264C44.2827 71.264 44.6933 71.4133 44.992 71.712C45.2907 71.9733 45.44 72.328 45.44 72.776C45.44 73.224 45.2907 73.5973 44.992 73.896C44.6933 74.1573 44.2827 74.288 43.76 74.288C41.856 74.288 40.3253 74.736 39.168 75.632C38.048 76.4907 37.2267 77.6853 36.704 79.216C36.2187 80.7093 35.976 82.408 35.976 84.312V85.488H43.368C43.816 85.488 44.1707 85.6373 44.432 85.936C44.7307 86.1973 44.88 86.552 44.88 87C44.88 87.448 44.7307 87.8213 44.432 88.12C44.1707 88.3813 43.816 88.512 43.368 88.512H35.976V113.32C35.976 113.805 35.808 114.216 35.472 114.552C35.1733 114.851 34.7627 115 34.24 115ZM63.3994 115.336C60.4127 115.336 57.7247 114.664 55.3354 113.32C52.9834 111.939 51.1167 110.072 49.7354 107.72C48.3914 105.331 47.7194 102.661 47.7194 99.712C47.7194 96.7253 48.3914 94.056 49.7354 91.704C51.1167 89.3147 52.9834 87.448 55.3354 86.104C57.7247 84.7227 60.4127 84.032 63.3994 84.032C66.386 84.032 69.0554 84.7227 71.4074 86.104C73.7594 87.448 75.6074 89.3147 76.9514 91.704C78.3327 94.056 79.0234 96.7253 79.0234 99.712C79.0234 102.661 78.3327 105.331 76.9514 107.72C75.6074 110.072 73.7594 111.939 71.4074 113.32C69.0554 114.664 66.386 115.336 63.3994 115.336ZM63.3994 112.2C65.7514 112.2 67.842 111.659 69.6714 110.576C71.538 109.456 72.994 107.963 74.0394 106.096C75.122 104.192 75.6634 102.064 75.6634 99.712C75.6634 97.3227 75.122 95.1947 74.0394 93.328C72.994 91.424 71.538 89.9307 69.6714 88.848C67.842 87.728 65.7514 87.168 63.3994 87.168C61.0847 87.168 58.994 87.728 57.1274 88.848C55.2607 89.9307 53.786 91.424 52.7034 93.328C51.6207 95.1947 51.0794 97.3227 51.0794 99.712C51.0794 102.064 51.6207 104.192 52.7034 106.096C53.786 107.963 55.2607 109.456 57.1274 110.576C58.994 111.659 61.0847 112.2 63.3994 112.2ZM101.015 115.392C98.3272 115.392 95.9192 114.851 93.7912 113.768C91.6632 112.648 89.9645 111.024 88.6952 108.896C87.4632 106.768 86.8472 104.173 86.8472 101.112V86.048C86.8472 85.5627 86.9965 85.1707 87.2952 84.872C87.6312 84.536 88.0419 84.368 88.5272 84.368C89.0125 84.368 89.4045 84.536 89.7032 84.872C90.0392 85.1707 90.2072 85.5627 90.2072 86.048V101.112C90.2072 103.539 90.6739 105.573 91.6072 107.216C92.5779 108.821 93.8659 110.035 95.4712 110.856C97.1139 111.64 98.9619 112.032 101.015 112.032C103.031 112.032 104.842 111.64 106.447 110.856C108.053 110.072 109.322 109.027 110.255 107.72C111.189 106.376 111.655 104.864 111.655 103.184V86.048C111.655 85.5253 111.805 85.1147 112.103 84.816C112.439 84.5173 112.85 84.368 113.335 84.368C113.858 84.368 114.269 84.5173 114.567 84.816C114.866 85.1147 115.015 85.5253 115.015 86.048V113.32C115.015 113.805 114.866 114.216 114.567 114.552C114.269 114.851 113.858 115 113.335 115C112.85 115 112.439 114.851 112.103 114.552C111.805 114.216 111.655 113.805 111.655 113.32V110.408C110.423 111.939 108.874 113.152 107.007 114.048C105.178 114.944 103.181 115.392 101.015 115.392ZM126.767 115C126.282 115 125.871 114.851 125.535 114.552C125.236 114.216 125.087 113.805 125.087 113.32V86.048C125.087 85.5253 125.236 85.1147 125.535 84.816C125.871 84.5173 126.282 84.368 126.767 84.368C127.29 84.368 127.7 84.5173 127.999 84.816C128.298 85.1147 128.447 85.5253 128.447 86.048V88.96C129.679 87.4293 131.21 86.216 133.039 85.32C134.906 84.424 136.922 83.976 139.087 83.976C141.775 83.976 144.183 84.536 146.311 85.656C148.476 86.7387 150.175 88.344 151.407 90.472C152.639 92.5627 153.255 95.1573 153.255 98.256V113.32C153.255 113.805 153.087 114.216 152.751 114.552C152.452 114.851 152.06 115 151.575 115C151.09 115 150.679 114.851 150.343 114.552C150.044 114.216 149.895 113.805 149.895 113.32V98.256C149.895 95.792 149.41 93.7573 148.439 92.152C147.506 90.5467 146.218 89.352 144.575 88.568C142.97 87.7467 141.14 87.336 139.087 87.336C137.071 87.336 135.26 87.728 133.655 88.512C132.05 89.2587 130.78 90.304 129.847 91.648C128.914 92.992 128.447 94.504 128.447 96.184V113.32C128.447 113.805 128.298 114.216 127.999 114.552C127.7 114.851 127.29 115 126.767 115ZM176.767 115.336C173.78 115.336 171.092 114.664 168.703 113.32C166.351 111.939 164.484 110.072 163.103 107.72C161.759 105.331 161.087 102.643 161.087 99.656C161.087 96.6693 161.759 94 163.103 91.648C164.484 89.296 166.351 87.448 168.703 86.104C171.092 84.7227 173.78 84.032 176.767 84.032C179.455 84.032 181.863 84.6107 183.991 85.768C186.156 86.9253 187.836 88.4747 189.031 90.416V72.944C189.031 72.4213 189.18 72.0107 189.479 71.712C189.815 71.4133 190.225 71.264 190.711 71.264C191.233 71.264 191.644 71.4133 191.943 71.712C192.241 72.0107 192.391 72.4213 192.391 72.944V99.992C192.353 102.904 191.644 105.517 190.263 107.832C188.881 110.147 187.015 111.976 184.663 113.32C182.348 114.664 179.716 115.336 176.767 115.336ZM176.767 112.2C179.119 112.2 181.209 111.659 183.039 110.576C184.905 109.456 186.361 107.963 187.407 106.096C188.489 104.192 189.031 102.045 189.031 99.656C189.031 97.2667 188.489 95.1387 187.407 93.272C186.361 91.4053 184.905 89.9307 183.039 88.848C181.209 87.728 179.119 87.168 176.767 87.168C174.452 87.168 172.361 87.728 170.495 88.848C168.628 89.9307 167.153 91.4053 166.071 93.272C164.988 95.1387 164.447 97.2667 164.447 99.656C164.447 102.045 164.988 104.192 166.071 106.096C167.153 107.963 168.628 109.456 170.495 110.576C172.361 111.659 174.452 112.2 176.767 112.2ZM216.47 115.336C213.483 115.336 210.795 114.664 208.406 113.32C206.054 111.939 204.187 110.072 202.806 107.72C201.462 105.331 200.79 102.661 200.79 99.712C200.79 96.7253 201.462 94.056 202.806 91.704C204.187 89.3147 206.054 87.448 208.406 86.104C210.795 84.7227 213.483 84.032 216.47 84.032C219.456 84.032 222.126 84.7227 224.478 86.104C226.83 87.448 228.678 89.3147 230.022 91.704C231.403 94.056 232.094 96.7253 232.094 99.712V113.32C232.094 113.805 231.944 114.216 231.646 114.552C231.347 114.851 230.936 115 230.414 115C229.928 115 229.518 114.851 229.182 114.552C228.883 114.216 228.734 113.805 228.734 113.32V108.952C227.502 110.893 225.822 112.443 223.694 113.6C221.566 114.757 219.158 115.336 216.47 115.336ZM216.47 112.2C218.822 112.2 220.912 111.659 222.742 110.576C224.608 109.456 226.064 107.963 227.11 106.096C228.192 104.192 228.734 102.064 228.734 99.712C228.734 97.3227 228.192 95.1947 227.11 93.328C226.064 91.424 224.608 89.9307 222.742 88.848C220.912 87.728 218.822 87.168 216.47 87.168C214.155 87.168 212.064 87.728 210.198 88.848C208.331 89.9307 206.856 91.424 205.774 93.328C204.691 95.1947 204.15 97.3227 204.15 99.712C204.15 102.064 204.691 104.192 205.774 106.096C206.856 107.963 208.331 109.456 210.198 110.576C212.064 111.659 214.155 112.2 216.47 112.2ZM253.022 115C250.968 114.963 249.139 114.496 247.534 113.6C245.928 112.667 244.678 111.397 243.782 109.792C242.886 108.149 242.438 106.301 242.438 104.248V88.512H238.07C237.622 88.512 237.248 88.3813 236.95 88.12C236.688 87.8213 236.558 87.448 236.558 87C236.558 86.552 236.688 86.1973 236.95 85.936C237.248 85.6373 237.622 85.488 238.07 85.488H242.438V76.36C242.438 75.8373 242.587 75.4267 242.886 75.128C243.222 74.792 243.632 74.624 244.118 74.624C244.64 74.624 245.051 74.792 245.35 75.128C245.686 75.4267 245.854 75.8373 245.854 76.36V85.488H253.246C253.694 85.488 254.048 85.6373 254.31 85.936C254.608 86.1973 254.758 86.552 254.758 87C254.758 87.448 254.608 87.8213 254.31 88.12C254.048 88.3813 253.694 88.512 253.246 88.512H245.854V104.248C245.854 106.413 246.526 108.187 247.87 109.568C249.214 110.912 250.95 111.584 253.078 111.584H254.31C254.832 111.584 255.243 111.752 255.542 112.088C255.878 112.387 256.046 112.797 256.046 113.32C256.046 113.805 255.878 114.216 255.542 114.552C255.243 114.851 254.832 115 254.31 115H253.022ZM265.863 115C265.378 115 264.967 114.851 264.631 114.552C264.333 114.216 264.183 113.805 264.183 113.32V86.048C264.183 85.5253 264.333 85.1147 264.631 84.816C264.967 84.5173 265.378 84.368 265.863 84.368C266.386 84.368 266.797 84.5173 267.095 84.816C267.394 85.1147 267.543 85.5253 267.543 86.048V113.32C267.543 113.805 267.394 114.216 267.095 114.552C266.797 114.851 266.386 115 265.863 115ZM265.807 77.928C265.098 77.928 264.482 77.6853 263.959 77.2C263.474 76.6773 263.231 76.0427 263.231 75.296C263.231 74.4373 263.493 73.8027 264.015 73.392C264.575 72.944 265.191 72.72 265.863 72.72C266.498 72.72 267.077 72.944 267.599 73.392C268.159 73.8027 268.439 74.4373 268.439 75.296C268.439 76.0427 268.178 76.6773 267.655 77.2C267.17 77.6853 266.554 77.928 265.807 77.928ZM292.759 115.336C289.772 115.336 287.084 114.664 284.695 113.32C282.343 111.939 280.476 110.072 279.095 107.72C277.751 105.331 277.079 102.661 277.079 99.712C277.079 96.7253 277.751 94.056 279.095 91.704C280.476 89.3147 282.343 87.448 284.695 86.104C287.084 84.7227 289.772 84.032 292.759 84.032C295.745 84.032 298.415 84.7227 300.767 86.104C303.119 87.448 304.967 89.3147 306.311 91.704C307.692 94.056 308.383 96.7253 308.383 99.712C308.383 102.661 307.692 105.331 306.311 107.72C304.967 110.072 303.119 111.939 300.767 113.32C298.415 114.664 295.745 115.336 292.759 115.336ZM292.759 112.2C295.111 112.2 297.201 111.659 299.031 110.576C300.897 109.456 302.353 107.963 303.399 106.096C304.481 104.192 305.023 102.064 305.023 99.712C305.023 97.3227 304.481 95.1947 303.399 93.328C302.353 91.424 300.897 89.9307 299.031 88.848C297.201 87.728 295.111 87.168 292.759 87.168C290.444 87.168 288.353 87.728 286.487 88.848C284.62 89.9307 283.145 91.424 282.063 93.328C280.98 95.1947 280.439 97.3227 280.439 99.712C280.439 102.064 280.98 104.192 282.063 106.096C283.145 107.963 284.62 109.456 286.487 110.576C288.353 111.659 290.444 112.2 292.759 112.2ZM318.447 115C317.961 115 317.551 114.851 317.215 114.552C316.916 114.216 316.767 113.805 316.767 113.32V86.048C316.767 85.5253 316.916 85.1147 317.215 84.816C317.551 84.5173 317.961 84.368 318.447 84.368C318.969 84.368 319.38 84.5173 319.679 84.816C319.977 85.1147 320.127 85.5253 320.127 86.048V88.96C321.359 87.4293 322.889 86.216 324.719 85.32C326.585 84.424 328.601 83.976 330.767 83.976C333.455 83.976 335.863 84.536 337.991 85.656C340.156 86.7387 341.855 88.344 343.087 90.472C344.319 92.5627 344.935 95.1573 344.935 98.256V113.32C344.935 113.805 344.767 114.216 344.431 114.552C344.132 114.851 343.74 115 343.255 115C342.769 115 342.359 114.851 342.023 114.552C341.724 114.216 341.575 113.805 341.575 113.32V98.256C341.575 95.792 341.089 93.7573 340.119 92.152C339.185 90.5467 337.897 89.352 336.255 88.568C334.649 87.7467 332.82 87.336 330.767 87.336C328.751 87.336 326.94 87.728 325.335 88.512C323.729 89.2587 322.46 90.304 321.527 91.648C320.593 92.992 320.127 94.504 320.127 96.184V113.32C320.127 113.805 319.977 114.216 319.679 114.552C319.38 114.851 318.969 115 318.447 115Z" fill="#0076BE"/>
</svg>
