<svg width="872" height="875" viewBox="0 0 872 875" fill="none" xmlns="http://www.w3.org/2000/svg">
<path d="M508.1 1.09996C502.8 2.69996 494.7 8.29996 490.7 13.2C484.3 21 482.6 26.1 482.5 37.5C482.5 48.3 483.4 51.6 488.2 58.7C492.1 64.5 496.5 68.4 502.5 71.4C526.5 83.6 555.5 67.7 557.7 41.2C559.1 24.8 551.4 10.9 536.8 3.29996C532.2 0.999956 530.1 0.599956 521.5 0.299956C516 0.199956 510 0.499956 508.1 1.09996Z" fill="#0076BE"/>
<path d="M233.4 33.9C215.6 38.5 203.7 55.8 205.4 74.4C208.2 104.2 242.5 119.1 266.6 101C282 89.4 285.8 66.7 275.1 49.8C271.9 44.7 263.6 38 257.5 35.4C253 33.5 238.3 32.6 233.4 33.9Z" fill="#0076BE"/>
<path d="M420.5 43.6C419.4 43.8 416 44.5 413 45.1C394.2 48.7 373.9 58.7 357.7 72.4C351.6 77.5 342.2 88.4 336.6 97C329.1 108.4 328.9 106.9 338.8 114.3C343.6 117.9 348.4 121.8 349.4 122.9C350.5 124.1 351.8 125 352.4 125C353 125 355.2 122.2 357.2 118.7C373.5 90.9 409.4 73.3 442.2 77C478.7 81.1 508.5 105.3 519.4 139.5C523.2 151.5 524.1 159.6 524.1 180C524.1 197.1 522.9 210.2 520.1 223.3C517.8 234 518 258.8 520.5 265.2C520.8 265.9 524.3 268.5 528.2 271C553.5 286.5 579.8 312.9 593 335.9C595.4 340.1 597.4 342.3 599.4 343C604.2 344.7 607.7 344.2 609.5 341.8C610.3 340.5 614 336.5 617.6 332.8L624.2 326.1L621.4 325.5C606.7 322.3 592.9 316 581.4 307.4C559.7 291.1 546.1 263.3 546 235.3C546 224.8 547.7 215.9 552.4 201C557.3 185.9 558.3 178 557.8 158.9C557.2 139.7 554.8 128.4 547.8 113.5C543.6 104.5 535.2 91 530.5 85.7C528.3 83.2 527.5 82.9 523.7 83.5C514.6 84.9 498.5 79.9 490.8 73.5C485.3 68.9 480.3 61.9 477.4 55.1C475.9 51.5 474.5 48.3 474.4 48.1C474.2 47.9 470.6 46.9 466.3 45.8C460.5 44.4 453.9 43.8 440.5 43.5C430.6 43.3 421.6 43.3 420.5 43.6Z" fill="#0076BE"/>
<path d="M274 105.1C259.3 118.5 237.9 120.7 220.2 110.9L215 108L207.9 111.5C163 133.7 135.8 182 140.8 230.8C142.4 246.1 142.7 247.3 145.4 246.6C146.5 246.3 152.9 245.7 159.6 245.4L171.7 244.7L170.7 239.6C169.2 231.3 170.5 209.7 173 201C180.8 174.5 200.3 152.5 225.2 142.2C234.1 138.5 250.6 135 259.2 135C267.6 135 281 137.3 289 140C304.8 145.5 316.6 153.5 329.6 167.7C343.9 183.1 350.9 192.5 359.5 207.5C367.3 221.2 372.6 228.4 380.2 235.8C390.3 245.6 389.8 245.4 399.9 244.1C430.1 240.2 456.8 242.6 486.4 251.7L498.2 255.4L502.7 252.9L507.2 250.5L507.6 240.2C507.8 234.5 508.2 229 508.5 227.9C509.3 225.3 508 225.5 501.7 228.6C468.6 245.4 426.8 239.7 399.2 214.5C387.4 203.7 381.1 193.9 371.7 171.4C357.9 138.3 326.7 112.1 290.5 103C286.1 101.9 281.6 101 280.5 101.1C279.4 101.1 276.5 102.9 274 105.1Z" fill="#0076BE"/>
<path d="M599.5 112.6C586.3 114.1 563 120 563 121.8C563 122.2 564.1 127 565.5 132.5C566.9 138 568 144 568 145.7C568 147.5 568.5 149 569.1 149C569.6 149 574.3 147.8 579.3 146.2C587.7 143.7 589.8 143.5 604.5 143.6C619.7 143.6 621 143.8 630.1 146.8C644.9 151.7 654.9 157.4 665.5 167.2C678.8 179.4 688.8 197.3 692.6 216.1C694.8 227.1 694.1 246.3 691 257C684.5 279.8 665.4 305.1 635.4 330.6C624.5 339.9 615.1 350.6 609.9 359.7L607.5 363.9L611.2 375.2C619.1 399.2 621.5 416.8 620.7 443.4C620.4 453.4 619.6 464.6 618.9 468.3C617.7 475.1 617.7 475.1 620.4 477.9C622.8 480.4 623.6 480.7 626.2 479.9C627.8 479.5 633 478.8 637.6 478.4C642.3 478 646.2 477.4 646.4 477.1C646.7 476.7 645.3 474.4 643.4 472C631.2 456 625 437.5 625 416.5C625 398.5 628.6 385.2 637.7 369.7C643.3 360.2 656.5 346.4 665.5 340.6C681.6 330.1 685.1 327.7 691.4 321.9C714.5 300.7 728.2 272 729.7 241.3L730.3 229.2L727.3 227.6C722.8 225.3 715.5 216.7 712 209.7C706.5 198.6 705.8 184.8 710.1 173.6L712 168.6L708.2 163.1C702.4 154.6 687.3 140 677.9 133.7C653.8 117.7 624.4 109.8 599.5 112.6Z" fill="#0076BE"/>
<path d="M739.8 153.9C733.4 156.4 725.9 162.1 722.7 166.7C717.3 174.6 715.6 179.9 715.6 189.5C715.5 197.7 715.8 199.1 718.8 205.5C730.2 229.7 761.5 235.2 780.4 216.4C788.8 208 792.3 197 790.9 183.8C789.7 172.4 781 160.6 770 155.2C765.3 152.9 763.1 152.5 754.5 152.3C746.6 152.1 743.5 152.4 739.8 153.9Z" fill="#0076BE"/>
<path d="M354.4 223.7C350.8 234.5 342.6 247.3 333.6 256.4C321.2 269 307.2 277 289.5 281.6C280.5 283.9 278.1 284.1 266 283.7C248.6 283.1 240.4 280.9 223 272.1C208.7 264.9 198.3 261 186 258.3C176.8 256.3 149.5 256 140.5 257.9C127 260.7 103.9 269.6 100.4 273.3C99.8 274 98.8 277.6 98.2 281.4C95.2 300 79.8 315.7 61 319.3L55.1 320.4L52.2 327C48.4 335.3 45.3 345.4 43.4 355C41.5 365 41.6 388.5 43.5 398.9C48.7 426.1 62.5 450.3 83.1 468.1L89.2 473.4L92.8 469.4C97.1 464.8 104.5 458.2 107.9 455.8L110.4 454.1L103.3 447.2C84.2 428.5 75.1 407.3 75 381.7C75 356.7 84.2 334.8 102.1 317.3C117.1 302.7 133.1 295 154.7 291.9C162.3 290.9 166.2 290.9 176.2 291.9C196.5 294 216.6 298.7 232.3 304.9C242.5 308.9 256.1 312.1 266.3 312.7L275 313.3L286.3 301.9C307.7 280.1 328.2 266.5 356 255.5C365.2 251.9 366.7 250.9 368.2 247.9C370.7 242.8 370.4 241.3 365.6 235.7C363.2 232.8 360.1 228.6 358.6 226.2C355.7 221.5 355.2 221.2 354.4 223.7Z" fill="#0076BE"/>
<path d="M43.4 236.9C33 239.6 22.7 248.1 18.2 257.8C15.8 262.9 15.5 264.7 15.5 274C15.5 283.9 15.7 285 18.8 291.2C22.7 299.2 29.9 306 38 309.3C42.3 311 45.5 311.5 53 311.5C61.8 311.5 63.1 311.2 69.2 308.2C77.5 304.1 85 296.3 88.1 288.2C91.3 280.3 91.3 267.8 88.2 260C85.1 252.1 77.4 243.8 69.5 239.9C64.2 237.3 61.7 236.7 54.8 236.4C50.2 236.2 45.1 236.4 43.4 236.9Z" fill="#0076BE"/>
<path d="M729 287.6C727.4 291.2 724.4 296.8 722.5 300.1C719 305.7 718.7 308 721.4 308C722 308 726.2 309.7 730.6 311.9C749.9 321.3 763.3 334.6 772.5 353.5C779.4 367.5 780.9 373.5 781.7 389C783 416 774.5 437.8 755.1 457C740.7 471.2 726.2 478.5 702.5 483.5C687.9 486.5 682.7 487.1 659 488C635.2 488.8 629.4 489.6 618.5 493.1L612.5 495L609.6 503.3C605.5 515.1 594 537 586.6 547.4C577.2 560.4 565.3 573.8 555.6 582.2C548.2 588.5 547 589.9 547 592.6C547 595.2 547.6 596 550 597C551.6 597.7 556.2 600.4 560.1 603.1C564 605.8 567.3 608 567.4 608C567.6 608 568 604.1 568.3 599.2C569.8 578.3 578.3 559.2 593.3 543.4C609.1 526.7 626.6 518 650.6 514.9C658.4 513.9 661.7 514 672.6 515.5C687 517.5 705.1 517.7 715.1 516.1C741 511.9 764.9 499.3 783.4 480.1C789.3 474 791 471.6 790.5 470.3C790.1 469.3 789.3 465.7 788.7 462.2C785.7 445.2 796 424.1 811.4 416C815.9 413.6 815.9 413.5 816.6 407.1C817.5 398.4 816.4 380.9 814.4 371.8C805.6 331.9 779 300.3 741.4 284.9L732 281.1L729 287.6Z" fill="#0076BE"/>
<path d="M236.2 319.1C242.4 335.4 243.5 356.5 239.1 373.5C236.6 383.1 229.7 397.8 224.1 405.3C211.5 422.4 191.8 435.4 171.3 440.1C153.2 444.2 149.3 445.4 140.7 449C109.7 462.3 84.8 487.9 74.9 516.9C73.3 521.5 73.2 522.6 74.3 523.9C81.3 532.3 85.2 547.9 83.1 559.5C81.8 566.8 76.2 578.5 72.2 582.3L69.2 585.2L71.1 592C80.7 626.8 104.6 654.9 137.4 670C151.5 676.5 172.2 681 188.3 681H194V676.2C194 673.5 194.5 668.7 195 665.4C195.6 662.2 196.3 658.1 196.5 656.4L197 653.3L189.3 652.6C164.6 650.3 145.9 642.1 129.6 626.2C112.1 609.1 103 587.4 102.9 562.5C102.8 548.9 104 542.6 108.6 530.5C117.3 507.3 130.9 493.1 160 476.2C170.6 470.1 179.7 466 201.6 457.6C209.4 454.6 216.6 451 222.1 447.3L230.5 441.5L231.3 431.5C234.3 392 242.1 365.7 259.9 335.5C262.5 331 262.7 330.2 261.7 327C260.5 323.6 260.3 323.5 251 321.4C245.8 320.3 240.2 318.9 238.6 318.5C236.3 317.9 235.8 318 236.2 319.1Z" fill="#0076BE"/>
<path d="M822 419.7C811.8 423.4 804 430.7 799.2 441C797.1 445.6 796.6 448 796.6 455.5C796.6 466.9 799.1 473.7 806.2 481.5C824.4 501.5 857.4 496.6 868.8 472.2C871.2 467.1 871.5 465.3 871.5 455.5C871.5 445.7 871.2 443.9 869 439.6C865.1 431.9 858.7 425.5 851.3 421.8C845.5 419 843.5 418.5 835.6 418.3C829.1 418.1 825.2 418.5 822 419.7Z" fill="#0076BE"/>
<path d="M216.2 462.6L205.8 467.9L211.2 471.4C223.6 479.4 234 490.3 241.1 502.6C242.8 505.6 244.3 508 244.5 508C244.7 508 243.3 503.4 241.4 497.7C238.1 488.1 233 465.7 233 461.2C233 459 230.2 456.9 227.8 457.1C227.1 457.2 221.8 459.7 216.2 462.6Z" fill="#0076BE"/>
<path d="M753 515C751.1 516 745.6 518.3 740.9 520.1L732.2 523.4L735.6 529.4C740.2 537.9 744.6 551.8 746 562.5C749.4 588.4 738.9 617.5 719.1 636.9C702.2 653.4 680.8 662.1 657 662.2C638.6 662.3 630.2 660.1 610 650C591.9 641 584.8 636.2 560.5 616.5C556.1 612.9 548 607.7 542.6 605L532.7 600.1L526.6 603.6C516.5 609.5 502.1 616.2 491.4 619.9L481.3 623.5H494.4C504.9 623.5 509.3 624 516.5 625.9C534.3 630.5 552.1 641.3 563.2 654.2C580.3 674.1 598.9 686.5 622.1 693.3C633 696.5 633.7 696.7 645.6 698C654.8 699 674.7 698.1 680 696.5C680.8 696.2 682.6 693.7 683.9 690.8C687.5 682.8 697.9 673 706.4 669.7C715.2 666.1 723.8 665 731.9 666.2L738.2 667.2L743.2 662.3C768.3 638 781.4 599.3 777 563C775.1 547.5 768.6 528.2 761.7 517.2C758.6 512.5 757.9 512.3 753 515Z" fill="#0076BE"/>
<path d="M26.3 515.4C16.3 518.7 7.5 526.3 2.8 535.8C0.8 539.9 0.5 542 0.5 552C0.5 562.2 0.8 564.1 2.9 568.5C6.4 575.7 15.5 584.3 22.7 587.1C30.8 590.3 44.1 590.4 52 587.2C63.6 582.6 72.3 571.8 75 558.6C78.3 542.4 69.7 525.4 54.3 517.8C48.7 515.1 46.5 514.6 39.1 514.3C33.7 514.1 28.9 514.5 26.3 515.4Z" fill="#0076BE"/>
<path d="M249.6 521.5C250 523.1 250.7 525.5 251.1 526.7C251.5 527.9 252.4 533.6 253.1 539.3C254.3 550.4 253.6 559.6 250.4 572.5C248.1 581.7 239.8 597.6 232.7 606.5C215.4 628.4 208 646 204.9 673.2C203.6 685.3 204.7 701 208 714.1C211.1 726.7 212.1 728.4 217.1 729.9C230.1 733.8 240 742.2 246.1 754.5C249.7 761.7 250.3 763.9 250.8 771.5L251.3 780.2L255.4 783.2C267 791.6 286.6 799.9 302.5 803.1C312.8 805.2 339.3 804.9 349.8 802.6C365.1 799.3 378.3 793.9 391.8 785.3C398.4 781.1 407 774.1 407 772.9C407 772.4 405.3 769.8 403.2 767C401.1 764.2 397.9 759.1 396 755.7C394.2 752.3 392.6 749.4 392.5 749.2C392.3 749 389.6 750.9 386.3 753.3C360.9 772.7 331.2 777.7 301.3 767.8C280.1 760.8 259.6 742.9 249.2 722.4C243.8 711.8 240 695.2 240 682.5C240 660.1 248.2 636.9 271.4 593.7C275.4 586.3 280.9 571.1 281 567.4C281 566.8 278.4 563.1 275.2 559.4C268.2 550.9 261.2 540.5 254.2 528C251.3 522.8 249.2 519.8 249.6 521.5Z" fill="#0076BE"/>
<path d="M290.8 578.8C289.9 579 288.6 580.8 287.9 582.8C287.2 584.8 285.2 589.8 283.3 593.9C281.5 598 280.1 601.4 280.2 601.6C280.4 601.7 284.1 601.4 288.5 600.9C298 599.8 312.4 601.1 322.3 603.9C326 604.9 329 605.6 328.8 605.5C328.6 605.4 324 602.2 318.5 598.5C313 594.8 304.9 588.8 300.5 585.1C295.9 581.2 291.8 578.6 290.8 578.8Z" fill="#0076BE"/>
<path d="M353.5 619C361.2 625.3 371.1 636.3 375.6 643.7C384.5 657.9 388.4 671.4 389.4 692C389.8 698.3 390.7 707.5 391.6 712.5C397 744.2 416 773.5 442.5 791.1C452.2 797.6 451.7 797.5 461.5 794C466.5 792.2 469.2 791.9 478 792.2C486.9 792.5 489.4 793 494.5 795.3C501.6 798.6 509.8 804.8 512.5 809C514.8 812.5 515.6 812.6 529.5 810.5C576.9 803.4 615.7 768.1 627.6 721.2C630.5 709.7 630.7 706 628.3 706C627.3 706 621.3 704.2 615 702.1C608.7 699.9 603.5 698.2 603.5 698.3C595.9 732.8 579.7 754.7 551.9 768C509.4 788.3 458.5 772.3 435 731.2C426 715.7 415.8 685.6 413.5 668.5C411.5 652.9 403.4 630.3 399.6 629.5C383.9 626.5 371.1 623.3 363.2 620.5C357.9 618.7 352.6 616.8 351.5 616.4C350.4 616.1 351.3 617.2 353.5 619Z" fill="#0076BE"/>
<path d="M454.5 629.1C452.3 629.6 443 630.3 433.8 630.6C422.3 631.1 416.7 631.7 416 632.5C415.2 633.4 415.5 635.2 416.8 638.6C417.9 641.3 419.5 646.5 420.5 650.2C421.5 654 422.6 657 423 657C423.4 657 425.2 655.2 427 653C432.3 646.5 443.9 637.8 454 632.8C463.3 628.1 463.5 627.1 454.5 629.1Z" fill="#0076BE"/>
<path d="M714.7 675C704.8 677.5 695.4 685.5 690.4 695.5C687.7 701 687.5 702.4 687.5 712C687.6 721.8 687.8 722.9 690.7 728.5C705.9 757.6 745.9 756.8 759.8 727.2C762.2 722.2 762.5 720.3 762.5 711.5C762.4 702.5 762.1 700.9 759.5 695.5C755.9 688 749.1 681.2 741.7 677.6C737 675.3 734.3 674.7 727.2 674.4C722.4 674.2 716.8 674.5 714.7 675Z" fill="#0076BE"/>
<path d="M197 737.1C185.1 739.4 172.9 750 169.1 761.3C159.6 789.2 182.2 816.5 210.9 811.9C223.9 809.9 235.6 800.7 240.2 789C243.2 781.3 243.2 767.7 240.2 760C235.8 748.9 224.6 739.7 212.2 737.1C206.2 735.9 203.4 735.8 197 737.1Z" fill="#0076BE"/>
<path d="M469 800C457.3 802.5 446.9 810.7 441.7 821.8C438.8 827.8 438.5 829.4 438.5 837.5C438.6 849.6 441.2 856.1 448.9 863.8C452 867 456.8 870.6 459.5 872C464 874.2 465.7 874.5 476 874.5C486.3 874.5 488.1 874.2 493 871.9C500.2 868.5 506.8 861.9 510.4 854.6C514.2 847.1 515.2 834.4 512.6 825.9C507.5 808.6 486.9 796.3 469 800Z" fill="#0076BE"/>
<path d="M249.896 442.104C249.075 442.104 248.384 441.824 247.824 441.264C247.301 440.741 247.04 440.069 247.04 439.248V413.712C247.077 410.763 247.768 408.112 249.112 405.76C250.456 403.408 252.285 401.56 254.6 400.216C256.915 398.835 259.528 398.144 262.44 398.144C265.389 398.144 268.021 398.835 270.336 400.216C272.651 401.56 274.48 403.408 275.824 405.76C277.205 408.112 277.896 410.763 277.896 413.712C277.896 416.661 277.261 419.312 275.992 421.664C274.76 423.979 273.061 425.827 270.896 427.208C268.731 428.552 266.285 429.224 263.56 429.224C261.357 429.224 259.323 428.776 257.456 427.88C255.627 426.947 254.059 425.696 252.752 424.128V439.248C252.752 440.069 252.491 440.741 251.968 441.264C251.445 441.824 250.755 442.104 249.896 442.104ZM262.44 424.184C264.344 424.184 266.043 423.736 267.536 422.84C269.029 421.907 270.205 420.656 271.064 419.088C271.96 417.483 272.408 415.691 272.408 413.712C272.408 411.696 271.96 409.904 271.064 408.336C270.205 406.731 269.029 405.48 267.536 404.584C266.043 403.651 264.344 403.184 262.44 403.184C260.573 403.184 258.875 403.651 257.344 404.584C255.851 405.48 254.675 406.731 253.816 408.336C252.957 409.904 252.528 411.696 252.528 413.712C252.528 415.691 252.957 417.483 253.816 419.088C254.675 420.656 255.851 421.907 257.344 422.84C258.875 423.736 260.573 424.184 262.44 424.184ZM300.303 429.224C297.279 429.224 294.61 428.571 292.295 427.264C289.98 425.92 288.151 424.091 286.807 421.776C285.5 419.424 284.847 416.736 284.847 413.712C284.847 410.651 285.5 407.963 286.807 405.648C288.151 403.296 289.98 401.467 292.295 400.16C294.61 398.816 297.279 398.144 300.303 398.144C303.29 398.144 305.94 398.816 308.255 400.16C310.57 401.467 312.38 403.296 313.687 405.648C315.031 407.963 315.703 410.651 315.703 413.712C315.703 416.736 315.05 419.424 313.743 421.776C312.436 424.091 310.626 425.92 308.311 427.264C305.996 428.571 303.327 429.224 300.303 429.224ZM300.303 424.184C302.244 424.184 303.962 423.736 305.455 422.84C306.948 421.944 308.106 420.712 308.927 419.144C309.786 417.576 310.215 415.765 310.215 413.712C310.215 411.659 309.786 409.848 308.927 408.28C308.106 406.675 306.948 405.424 305.455 404.528C303.962 403.632 302.244 403.184 300.303 403.184C298.362 403.184 296.644 403.632 295.151 404.528C293.658 405.424 292.482 406.675 291.623 408.28C290.764 409.848 290.335 411.659 290.335 413.712C290.335 415.765 290.764 417.576 291.623 419.144C292.482 420.712 293.658 421.944 295.151 422.84C296.644 423.736 298.362 424.184 300.303 424.184ZM329.565 429C328.967 429 328.407 428.832 327.885 428.496C327.399 428.123 327.063 427.675 326.877 427.152L318.589 402.288C318.29 401.131 318.29 400.197 318.589 399.488C318.925 398.741 319.634 398.368 320.717 398.368C321.426 398.368 322.005 398.573 322.453 398.984C322.938 399.357 323.33 400.011 323.629 400.944L329.677 419.816L335.389 400.496C335.575 399.861 335.893 399.357 336.341 398.984C336.789 398.573 337.405 398.368 338.189 398.368C338.935 398.368 339.533 398.573 339.981 398.984C340.466 399.357 340.783 399.861 340.933 400.496L345.973 420.208L352.133 400.944C352.655 399.227 353.626 398.368 355.045 398.368C356.09 398.368 356.799 398.741 357.173 399.488C357.546 400.197 357.527 401.131 357.117 402.288L348.829 427.152C348.679 427.675 348.362 428.123 347.877 428.496C347.391 428.832 346.831 429 346.197 429C345.599 429 345.039 428.832 344.517 428.496C343.994 428.123 343.658 427.675 343.509 427.152L338.021 406.824L332.253 427.152C332.103 427.675 331.767 428.123 331.245 428.496C330.759 428.832 330.199 429 329.565 429ZM376.549 429.224C373.451 429.224 370.688 428.571 368.261 427.264C365.872 425.92 363.987 424.091 362.605 421.776C361.261 419.424 360.589 416.736 360.589 413.712C360.589 410.651 361.224 407.963 362.493 405.648C363.8 403.296 365.592 401.467 367.869 400.16C370.147 398.816 372.76 398.144 375.709 398.144C378.621 398.144 381.123 398.797 383.213 400.104C385.304 401.373 386.891 403.147 387.973 405.424C389.093 407.664 389.653 410.259 389.653 413.208C389.653 413.917 389.411 414.515 388.925 415C388.44 415.448 387.824 415.672 387.077 415.672H365.797C366.208 418.248 367.384 420.357 369.325 422C371.304 423.605 373.712 424.408 376.549 424.408C377.707 424.408 378.883 424.203 380.077 423.792C381.309 423.344 382.299 422.84 383.045 422.28C383.605 421.869 384.203 421.664 384.837 421.664C385.509 421.627 386.088 421.813 386.573 422.224C387.208 422.784 387.544 423.4 387.581 424.072C387.619 424.744 387.32 425.323 386.685 425.808C385.416 426.816 383.829 427.637 381.925 428.272C380.059 428.907 378.267 429.224 376.549 429.224ZM375.709 402.96C372.947 402.96 370.725 403.725 369.045 405.256C367.365 406.787 366.301 408.765 365.853 411.192H384.501C384.165 408.803 383.251 406.843 381.757 405.312C380.264 403.744 378.248 402.96 375.709 402.96ZM399.738 429C397.872 429 396.938 428.067 396.938 426.2V401.168C396.938 399.301 397.872 398.368 399.738 398.368C401.605 398.368 402.538 399.301 402.538 401.168V402.232C403.658 400.925 405.021 399.899 406.626 399.152C408.269 398.405 410.042 398.032 411.946 398.032C414.186 398.032 415.848 398.405 416.93 399.152C418.05 399.861 418.48 400.72 418.218 401.728C418.032 402.512 417.658 403.035 417.098 403.296C416.538 403.52 415.885 403.557 415.138 403.408C412.749 402.923 410.602 402.885 408.698 403.296C406.794 403.707 405.282 404.472 404.162 405.592C403.08 406.712 402.538 408.131 402.538 409.848V426.2C402.538 428.067 401.605 429 399.738 429Z" fill="#0076BE"/>
<path d="M453.584 429C451.531 428.963 449.701 428.496 448.096 427.6C446.491 426.667 445.24 425.397 444.344 423.792C443.448 422.149 443 420.301 443 418.248V402.512H438.632C438.184 402.512 437.811 402.381 437.512 402.12C437.251 401.821 437.12 401.448 437.12 401C437.12 400.552 437.251 400.197 437.512 399.936C437.811 399.637 438.184 399.488 438.632 399.488H443V390.36C443 389.837 443.149 389.427 443.448 389.128C443.784 388.792 444.195 388.624 444.68 388.624C445.203 388.624 445.613 388.792 445.912 389.128C446.248 389.427 446.416 389.837 446.416 390.36V399.488H453.808C454.256 399.488 454.611 399.637 454.872 399.936C455.171 400.197 455.32 400.552 455.32 401C455.32 401.448 455.171 401.821 454.872 402.12C454.611 402.381 454.256 402.512 453.808 402.512H446.416V418.248C446.416 420.413 447.088 422.187 448.432 423.568C449.776 424.912 451.512 425.584 453.64 425.584H454.872C455.395 425.584 455.805 425.752 456.104 426.088C456.44 426.387 456.608 426.797 456.608 427.32C456.608 427.805 456.44 428.216 456.104 428.552C455.805 428.851 455.395 429 454.872 429H453.584ZM477.626 429.336C474.639 429.336 471.951 428.664 469.562 427.32C467.21 425.939 465.343 424.072 463.962 421.72C462.618 419.331 461.946 416.661 461.946 413.712C461.946 410.725 462.618 408.056 463.962 405.704C465.343 403.315 467.21 401.448 469.562 400.104C471.951 398.723 474.639 398.032 477.626 398.032C480.613 398.032 483.282 398.723 485.634 400.104C487.986 401.448 489.834 403.315 491.178 405.704C492.559 408.056 493.25 410.725 493.25 413.712C493.25 416.661 492.559 419.331 491.178 421.72C489.834 424.072 487.986 425.939 485.634 427.32C483.282 428.664 480.613 429.336 477.626 429.336ZM477.626 426.2C479.978 426.2 482.069 425.659 483.898 424.576C485.765 423.456 487.221 421.963 488.266 420.096C489.349 418.192 489.89 416.064 489.89 413.712C489.89 411.323 489.349 409.195 488.266 407.328C487.221 405.424 485.765 403.931 483.898 402.848C482.069 401.728 479.978 401.168 477.626 401.168C475.311 401.168 473.221 401.728 471.354 402.848C469.487 403.931 468.013 405.424 466.93 407.328C465.847 409.195 465.306 411.323 465.306 413.712C465.306 416.064 465.847 418.192 466.93 420.096C468.013 421.963 469.487 423.456 471.354 424.576C473.221 425.659 475.311 426.2 477.626 426.2Z" fill="#0076BE"/>
<path d="M524.32 429C522.677 429 521.221 428.552 519.952 427.656C518.683 426.76 517.693 425.547 516.984 424.016C516.275 422.448 515.92 420.656 515.92 418.64V388.064C515.92 387.243 516.181 386.571 516.704 386.048C517.227 385.525 517.899 385.264 518.72 385.264C519.541 385.264 520.213 385.525 520.736 386.048C521.259 386.571 521.52 387.243 521.52 388.064V418.64C521.52 420.021 521.781 421.16 522.304 422.056C522.827 422.952 523.499 423.4 524.32 423.4H525.72C526.467 423.4 527.064 423.661 527.512 424.184C527.997 424.707 528.24 425.379 528.24 426.2C528.24 427.021 527.885 427.693 527.176 428.216C526.467 428.739 525.552 429 524.432 429H524.32ZM537.245 429C536.424 429 535.733 428.739 535.173 428.216C534.65 427.656 534.389 426.965 534.389 426.144V401.224C534.389 400.365 534.65 399.675 535.173 399.152C535.733 398.629 536.424 398.368 537.245 398.368C538.104 398.368 538.794 398.629 539.317 399.152C539.84 399.675 540.101 400.365 540.101 401.224V426.144C540.101 426.965 539.84 427.656 539.317 428.216C538.794 428.739 538.104 429 537.245 429ZM537.245 393.384C536.237 393.384 535.36 393.029 534.613 392.32C533.904 391.573 533.549 390.696 533.549 389.688C533.549 388.68 533.904 387.821 534.613 387.112C535.36 386.365 536.237 385.992 537.245 385.992C538.253 385.992 539.112 386.365 539.821 387.112C540.568 387.821 540.941 388.68 540.941 389.688C540.941 390.696 540.568 391.573 539.821 392.32C539.112 393.029 538.253 393.384 537.245 393.384ZM561.088 428.944C559.93 428.944 559.034 428.328 558.4 427.096L546.528 402.064C546.229 401.429 546.192 400.813 546.416 400.216C546.677 399.581 547.162 399.096 547.872 398.76C548.506 398.424 549.141 398.368 549.776 398.592C550.448 398.816 550.952 399.245 551.288 399.88L561.032 420.88L570.664 399.88C571 399.245 571.504 398.816 572.176 398.592C572.885 398.368 573.594 398.424 574.304 398.76C574.976 399.059 575.424 399.525 575.648 400.16C575.872 400.795 575.834 401.429 575.536 402.064L563.664 427.096C563.104 428.328 562.245 428.944 561.088 428.944ZM594.705 429.224C591.607 429.224 588.844 428.571 586.417 427.264C584.028 425.92 582.143 424.091 580.761 421.776C579.417 419.424 578.745 416.736 578.745 413.712C578.745 410.651 579.38 407.963 580.649 405.648C581.956 403.296 583.748 401.467 586.025 400.16C588.303 398.816 590.916 398.144 593.865 398.144C596.777 398.144 599.279 398.797 601.369 400.104C603.46 401.373 605.047 403.147 606.129 405.424C607.249 407.664 607.809 410.259 607.809 413.208C607.809 413.917 607.567 414.515 607.081 415C606.596 415.448 605.98 415.672 605.233 415.672H583.953C584.364 418.248 585.54 420.357 587.481 422C589.46 423.605 591.868 424.408 594.705 424.408C595.863 424.408 597.039 424.203 598.233 423.792C599.465 423.344 600.455 422.84 601.201 422.28C601.761 421.869 602.359 421.664 602.993 421.664C603.665 421.627 604.244 421.813 604.729 422.224C605.364 422.784 605.7 423.4 605.737 424.072C605.775 424.744 605.476 425.323 604.841 425.808C603.572 426.816 601.985 427.637 600.081 428.272C598.215 428.907 596.423 429.224 594.705 429.224ZM593.865 402.96C591.103 402.96 588.881 403.725 587.201 405.256C585.521 406.787 584.457 408.765 584.009 411.192H602.657C602.321 408.803 601.407 406.843 599.913 405.312C598.42 403.744 596.404 402.96 593.865 402.96Z" fill="#D864A7"/>
<path d="M276.24 495C275.755 495 275.344 494.851 275.008 494.552C274.709 494.216 274.56 493.805 274.56 493.32V468.512H270.192C269.744 468.512 269.371 468.381 269.072 468.12C268.811 467.821 268.68 467.448 268.68 467C268.68 466.552 268.811 466.197 269.072 465.936C269.371 465.637 269.744 465.488 270.192 465.488H274.56V464.312C274.56 461.773 274.952 459.533 275.736 457.592C276.52 455.613 277.733 454.064 279.376 452.944C281.056 451.824 283.184 451.264 285.76 451.264C286.283 451.264 286.693 451.413 286.992 451.712C287.291 451.973 287.44 452.328 287.44 452.776C287.44 453.224 287.291 453.597 286.992 453.896C286.693 454.157 286.283 454.288 285.76 454.288C283.856 454.288 282.325 454.736 281.168 455.632C280.048 456.491 279.227 457.685 278.704 459.216C278.219 460.709 277.976 462.408 277.976 464.312V465.488H285.368C285.816 465.488 286.171 465.637 286.432 465.936C286.731 466.197 286.88 466.552 286.88 467C286.88 467.448 286.731 467.821 286.432 468.12C286.171 468.381 285.816 468.512 285.368 468.512H277.976V493.32C277.976 493.805 277.808 494.216 277.472 494.552C277.173 494.851 276.763 495 276.24 495ZM305.399 495.336C302.413 495.336 299.725 494.664 297.335 493.32C294.983 491.939 293.117 490.072 291.735 487.72C290.391 485.331 289.719 482.661 289.719 479.712C289.719 476.725 290.391 474.056 291.735 471.704C293.117 469.315 294.983 467.448 297.335 466.104C299.725 464.723 302.413 464.032 305.399 464.032C308.386 464.032 311.055 464.723 313.407 466.104C315.759 467.448 317.607 469.315 318.951 471.704C320.333 474.056 321.023 476.725 321.023 479.712C321.023 482.661 320.333 485.331 318.951 487.72C317.607 490.072 315.759 491.939 313.407 493.32C311.055 494.664 308.386 495.336 305.399 495.336ZM305.399 492.2C307.751 492.2 309.842 491.659 311.671 490.576C313.538 489.456 314.994 487.963 316.039 486.096C317.122 484.192 317.663 482.064 317.663 479.712C317.663 477.323 317.122 475.195 316.039 473.328C314.994 471.424 313.538 469.931 311.671 468.848C309.842 467.728 307.751 467.168 305.399 467.168C303.085 467.168 300.994 467.728 299.127 468.848C297.261 469.931 295.786 471.424 294.703 473.328C293.621 475.195 293.079 477.323 293.079 479.712C293.079 482.064 293.621 484.192 294.703 486.096C295.786 487.963 297.261 489.456 299.127 490.576C300.994 491.659 303.085 492.2 305.399 492.2ZM343.015 495.392C340.327 495.392 337.919 494.851 335.791 493.768C333.663 492.648 331.965 491.024 330.695 488.896C329.463 486.768 328.847 484.173 328.847 481.112V466.048C328.847 465.563 328.997 465.171 329.295 464.872C329.631 464.536 330.042 464.368 330.527 464.368C331.013 464.368 331.405 464.536 331.703 464.872C332.039 465.171 332.207 465.563 332.207 466.048V481.112C332.207 483.539 332.674 485.573 333.607 487.216C334.578 488.821 335.866 490.035 337.471 490.856C339.114 491.64 340.962 492.032 343.015 492.032C345.031 492.032 346.842 491.64 348.447 490.856C350.053 490.072 351.322 489.027 352.255 487.72C353.189 486.376 353.655 484.864 353.655 483.184V466.048C353.655 465.525 353.805 465.115 354.103 464.816C354.439 464.517 354.85 464.368 355.335 464.368C355.858 464.368 356.269 464.517 356.567 464.816C356.866 465.115 357.015 465.525 357.015 466.048V493.32C357.015 493.805 356.866 494.216 356.567 494.552C356.269 494.851 355.858 495 355.335 495C354.85 495 354.439 494.851 354.103 494.552C353.805 494.216 353.655 493.805 353.655 493.32V490.408C352.423 491.939 350.874 493.152 349.007 494.048C347.178 494.944 345.181 495.392 343.015 495.392ZM368.767 495C368.282 495 367.871 494.851 367.535 494.552C367.236 494.216 367.087 493.805 367.087 493.32V466.048C367.087 465.525 367.236 465.115 367.535 464.816C367.871 464.517 368.282 464.368 368.767 464.368C369.29 464.368 369.7 464.517 369.999 464.816C370.298 465.115 370.447 465.525 370.447 466.048V468.96C371.679 467.429 373.21 466.216 375.039 465.32C376.906 464.424 378.922 463.976 381.087 463.976C383.775 463.976 386.183 464.536 388.311 465.656C390.476 466.739 392.175 468.344 393.407 470.472C394.639 472.563 395.255 475.157 395.255 478.256V493.32C395.255 493.805 395.087 494.216 394.751 494.552C394.452 494.851 394.06 495 393.575 495C393.09 495 392.679 494.851 392.343 494.552C392.044 494.216 391.895 493.805 391.895 493.32V478.256C391.895 475.792 391.41 473.757 390.439 472.152C389.506 470.547 388.218 469.352 386.575 468.568C384.97 467.747 383.14 467.336 381.087 467.336C379.071 467.336 377.26 467.728 375.655 468.512C374.05 469.259 372.78 470.304 371.847 471.648C370.914 472.992 370.447 474.504 370.447 476.184V493.32C370.447 493.805 370.298 494.216 369.999 494.552C369.7 494.851 369.29 495 368.767 495ZM418.767 495.336C415.78 495.336 413.092 494.664 410.703 493.32C408.351 491.939 406.484 490.072 405.103 487.72C403.759 485.331 403.087 482.643 403.087 479.656C403.087 476.669 403.759 474 405.103 471.648C406.484 469.296 408.351 467.448 410.703 466.104C413.092 464.723 415.78 464.032 418.767 464.032C421.455 464.032 423.863 464.611 425.991 465.768C428.156 466.925 429.836 468.475 431.031 470.416V452.944C431.031 452.421 431.18 452.011 431.479 451.712C431.815 451.413 432.225 451.264 432.711 451.264C433.233 451.264 433.644 451.413 433.943 451.712C434.241 452.011 434.391 452.421 434.391 452.944V479.992C434.353 482.904 433.644 485.517 432.263 487.832C430.881 490.147 429.015 491.976 426.663 493.32C424.348 494.664 421.716 495.336 418.767 495.336ZM418.767 492.2C421.119 492.2 423.209 491.659 425.039 490.576C426.905 489.456 428.361 487.963 429.407 486.096C430.489 484.192 431.031 482.045 431.031 479.656C431.031 477.267 430.489 475.139 429.407 473.272C428.361 471.405 426.905 469.931 425.039 468.848C423.209 467.728 421.119 467.168 418.767 467.168C416.452 467.168 414.361 467.728 412.495 468.848C410.628 469.931 409.153 471.405 408.071 473.272C406.988 475.139 406.447 477.267 406.447 479.656C406.447 482.045 406.988 484.192 408.071 486.096C409.153 487.963 410.628 489.456 412.495 490.576C414.361 491.659 416.452 492.2 418.767 492.2ZM458.47 495.336C455.483 495.336 452.795 494.664 450.406 493.32C448.054 491.939 446.187 490.072 444.806 487.72C443.462 485.331 442.79 482.661 442.79 479.712C442.79 476.725 443.462 474.056 444.806 471.704C446.187 469.315 448.054 467.448 450.406 466.104C452.795 464.723 455.483 464.032 458.47 464.032C461.456 464.032 464.126 464.723 466.478 466.104C468.83 467.448 470.678 469.315 472.022 471.704C473.403 474.056 474.094 476.725 474.094 479.712V493.32C474.094 493.805 473.944 494.216 473.646 494.552C473.347 494.851 472.936 495 472.414 495C471.928 495 471.518 494.851 471.182 494.552C470.883 494.216 470.734 493.805 470.734 493.32V488.952C469.502 490.893 467.822 492.443 465.694 493.6C463.566 494.757 461.158 495.336 458.47 495.336ZM458.47 492.2C460.822 492.2 462.912 491.659 464.742 490.576C466.608 489.456 468.064 487.963 469.11 486.096C470.192 484.192 470.734 482.064 470.734 479.712C470.734 477.323 470.192 475.195 469.11 473.328C468.064 471.424 466.608 469.931 464.742 468.848C462.912 467.728 460.822 467.168 458.47 467.168C456.155 467.168 454.064 467.728 452.198 468.848C450.331 469.931 448.856 471.424 447.774 473.328C446.691 475.195 446.15 477.323 446.15 479.712C446.15 482.064 446.691 484.192 447.774 486.096C448.856 487.963 450.331 489.456 452.198 490.576C454.064 491.659 456.155 492.2 458.47 492.2ZM495.022 495C492.968 494.963 491.139 494.496 489.534 493.6C487.928 492.667 486.678 491.397 485.782 489.792C484.886 488.149 484.438 486.301 484.438 484.248V468.512H480.07C479.622 468.512 479.248 468.381 478.95 468.12C478.688 467.821 478.558 467.448 478.558 467C478.558 466.552 478.688 466.197 478.95 465.936C479.248 465.637 479.622 465.488 480.07 465.488H484.438V456.36C484.438 455.837 484.587 455.427 484.886 455.128C485.222 454.792 485.632 454.624 486.118 454.624C486.64 454.624 487.051 454.792 487.35 455.128C487.686 455.427 487.854 455.837 487.854 456.36V465.488H495.246C495.694 465.488 496.048 465.637 496.31 465.936C496.608 466.197 496.758 466.552 496.758 467C496.758 467.448 496.608 467.821 496.31 468.12C496.048 468.381 495.694 468.512 495.246 468.512H487.854V484.248C487.854 486.413 488.526 488.187 489.87 489.568C491.214 490.912 492.95 491.584 495.078 491.584H496.31C496.832 491.584 497.243 491.752 497.542 492.088C497.878 492.387 498.046 492.797 498.046 493.32C498.046 493.805 497.878 494.216 497.542 494.552C497.243 494.851 496.832 495 496.31 495H495.022ZM507.863 495C507.378 495 506.967 494.851 506.631 494.552C506.333 494.216 506.183 493.805 506.183 493.32V466.048C506.183 465.525 506.333 465.115 506.631 464.816C506.967 464.517 507.378 464.368 507.863 464.368C508.386 464.368 508.797 464.517 509.095 464.816C509.394 465.115 509.543 465.525 509.543 466.048V493.32C509.543 493.805 509.394 494.216 509.095 494.552C508.797 494.851 508.386 495 507.863 495ZM507.807 457.928C507.098 457.928 506.482 457.685 505.959 457.2C505.474 456.677 505.231 456.043 505.231 455.296C505.231 454.437 505.493 453.803 506.015 453.392C506.575 452.944 507.191 452.72 507.863 452.72C508.498 452.72 509.077 452.944 509.599 453.392C510.159 453.803 510.439 454.437 510.439 455.296C510.439 456.043 510.178 456.677 509.655 457.2C509.17 457.685 508.554 457.928 507.807 457.928ZM534.759 495.336C531.772 495.336 529.084 494.664 526.695 493.32C524.343 491.939 522.476 490.072 521.095 487.72C519.751 485.331 519.079 482.661 519.079 479.712C519.079 476.725 519.751 474.056 521.095 471.704C522.476 469.315 524.343 467.448 526.695 466.104C529.084 464.723 531.772 464.032 534.759 464.032C537.745 464.032 540.415 464.723 542.767 466.104C545.119 467.448 546.967 469.315 548.311 471.704C549.692 474.056 550.383 476.725 550.383 479.712C550.383 482.661 549.692 485.331 548.311 487.72C546.967 490.072 545.119 491.939 542.767 493.32C540.415 494.664 537.745 495.336 534.759 495.336ZM534.759 492.2C537.111 492.2 539.201 491.659 541.031 490.576C542.897 489.456 544.353 487.963 545.399 486.096C546.481 484.192 547.023 482.064 547.023 479.712C547.023 477.323 546.481 475.195 545.399 473.328C544.353 471.424 542.897 469.931 541.031 468.848C539.201 467.728 537.111 467.168 534.759 467.168C532.444 467.168 530.353 467.728 528.487 468.848C526.62 469.931 525.145 471.424 524.063 473.328C522.98 475.195 522.439 477.323 522.439 479.712C522.439 482.064 522.98 484.192 524.063 486.096C525.145 487.963 526.62 489.456 528.487 490.576C530.353 491.659 532.444 492.2 534.759 492.2ZM560.447 495C559.961 495 559.551 494.851 559.215 494.552C558.916 494.216 558.767 493.805 558.767 493.32V466.048C558.767 465.525 558.916 465.115 559.215 464.816C559.551 464.517 559.961 464.368 560.447 464.368C560.969 464.368 561.38 464.517 561.679 464.816C561.977 465.115 562.127 465.525 562.127 466.048V468.96C563.359 467.429 564.889 466.216 566.719 465.32C568.585 464.424 570.601 463.976 572.767 463.976C575.455 463.976 577.863 464.536 579.991 465.656C582.156 466.739 583.855 468.344 585.087 470.472C586.319 472.563 586.935 475.157 586.935 478.256V493.32C586.935 493.805 586.767 494.216 586.431 494.552C586.132 494.851 585.74 495 585.255 495C584.769 495 584.359 494.851 584.023 494.552C583.724 494.216 583.575 493.805 583.575 493.32V478.256C583.575 475.792 583.089 473.757 582.119 472.152C581.185 470.547 579.897 469.352 578.255 468.568C576.649 467.747 574.82 467.336 572.767 467.336C570.751 467.336 568.94 467.728 567.335 468.512C565.729 469.259 564.46 470.304 563.527 471.648C562.593 472.992 562.127 474.504 562.127 476.184V493.32C562.127 493.805 561.977 494.216 561.679 494.552C561.38 494.851 560.969 495 560.447 495Z" fill="#0076BE"/>
</svg>
