<svg id="social-care" xmlns="http://www.w3.org/2000/svg" width="28.035" height="28.035" viewBox="0 0 28.035 28.035">
  <g id="Group_9" data-name="Group 9" transform="translate(4.196 25.778)">
    <g id="Group_8" data-name="Group 8">
      <path id="Path_4" data-name="Path 4" d="M7.8,38.172,6.98,37.011a.548.548,0,1,0-.893.634l.824,1.161a.548.548,0,1,0,.893-.634Z" transform="translate(-5.986 -36.78)" fill="#409fd9"/>
    </g>
  </g>
  <g id="Group_11" data-name="Group 11" transform="translate(0 8.567)">
    <g id="Group_10" data-name="Group 10">
      <path id="Path_5" data-name="Path 5" d="M12.331,31.031l-.9-4.276a8.064,8.064,0,0,0-3.41-5.062L6.108,20.4a1.927,1.927,0,0,0-2.442.249v-6.6a1.833,1.833,0,0,0-2.98-1.43A1.824,1.824,0,0,0,0,14.056v8.49a5.3,5.3,0,0,0,.984,3.087l.976,1.376a.548.548,0,1,0,.893-.634L1.877,25A4.215,4.215,0,0,1,1.1,22.546v-8.49a.738.738,0,1,1,1.476,0v6.736a3.826,3.826,0,0,0,.987,2.569c.027.033.055.065.085.1l1.194,1.267.564.6.006.005.845.9a.548.548,0,1,0,.8-.75L5.666,24.009,4.411,22.672l-.009-.01a.924.924,0,0,1,.018-1.211A.828.828,0,0,1,5.5,21.314L7.413,22.6a6.974,6.974,0,0,1,2.95,4.379l.9,4.276a.548.548,0,1,0,1.072-.225Z" transform="translate(0 -12.223)" fill="#409fd9"/>
    </g>
  </g>
  <g id="Group_13" data-name="Group 13" transform="translate(3.06 24.179)">
    <g id="Group_12" data-name="Group 12">
      <path id="Path_6" data-name="Path 6" d="M5.363,34.732l0,0a.548.548,0,0,0-.891.636l0,0a.548.548,0,0,0,.891-.636Z" transform="translate(-4.366 -34.498)" fill="#409fd9"/>
    </g>
  </g>
  <g id="Group_15" data-name="Group 15" transform="translate(15.692 8.567)">
    <g id="Group_14" data-name="Group 14">
      <path id="Path_7" data-name="Path 7" d="M34.046,12.627a1.833,1.833,0,0,0-2.98,1.43v6.6a1.927,1.927,0,0,0-2.442-.249l-1.915,1.288a8.063,8.063,0,0,0-3.41,5.062l-.9,4.276a.548.548,0,1,0,1.072.225l.9-4.276a6.974,6.974,0,0,1,2.95-4.378l1.915-1.288a.828.828,0,0,1,1.078.138.924.924,0,0,1,.019,1.21l-.01.012L27.683,25.48a.548.548,0,1,0,.8.75c.007-.008,2.245-2.387,2.608-2.772.03-.031.058-.064.085-.1a3.826,3.826,0,0,0,.987-2.569V14.056a.738.738,0,1,1,1.476,0v8.49A4.215,4.215,0,0,1,32.855,25l-4.137,5.827a.548.548,0,1,0,.893.634l4.137-5.827a5.3,5.3,0,0,0,.984-3.087v-8.49A1.825,1.825,0,0,0,34.046,12.627Z" transform="translate(-22.389 -12.223)" fill="#409fd9"/>
    </g>
  </g>
  <g id="Group_17" data-name="Group 17" transform="translate(5.114 2.957)">
    <g id="Group_16" data-name="Group 16">
      <path id="Path_8" data-name="Path 8" d="M23.135,11.756l-.974-.233v-.175a2.449,2.449,0,0,0,1.048-2.008V8.075a2.449,2.449,0,0,0-4.041-1.863,3.2,3.2,0,0,0-5.925,0A2.449,2.449,0,0,0,9.2,8.075V9.341a2.449,2.449,0,0,0,1.048,2.008v.175l-.974.233a2.565,2.565,0,0,0-1.975,2.5v1.023a.548.548,0,0,0,.548.548H10.36c0,.066-.007.133-.007.2V18a.548.548,0,0,0,.548.548h3.291a.548.548,0,1,0,0-1.1h-.566V16.32a.548.548,0,0,0-1.1,0v1.132H11.448V16.03a2.267,2.267,0,0,1,1.744-2.212l1.5-.36L15.7,15.746a.548.548,0,0,0,.5.327h0a.548.548,0,0,0,.5-.327l1-2.284,1.5.358a2.267,2.267,0,0,1,1.746,2.212v1.42H19.868V16.32a.548.548,0,1,0-1.1,0v1.132h-.621a.548.548,0,0,0,0,1.1H21.5A.548.548,0,0,0,22.046,18V16.032c0-.068,0-.135-.007-.2h2.523a.548.548,0,0,0,.548-.548V14.259A2.565,2.565,0,0,0,23.135,11.756ZM20.759,6.719a1.357,1.357,0,0,1,1.353,1.266H21.35a3.991,3.991,0,0,1-1.836-.447A1.357,1.357,0,0,1,20.759,6.719ZM19.4,9.261c0-.027,0-.053,0-.08V8.693a5.086,5.086,0,0,0,1.945.387h.764v.261a1.356,1.356,0,1,1-2.711,0ZM14.1,7.417h0a2.1,2.1,0,0,1,4.18-.334l-.922-.542a.547.547,0,0,0-.7.12,2.359,2.359,0,0,1-1.813.846H14.1V7.417Zm-2.456-.7a1.358,1.358,0,0,1,1.245.819,3.991,3.991,0,0,1-1.836.447H10.3A1.357,1.357,0,0,1,11.648,6.719ZM10.293,9.08h.764A5.087,5.087,0,0,0,13,8.692v.648a1.356,1.356,0,0,1-2.711,0V9.08Zm2.645,3.673a3.358,3.358,0,0,0-2.327,1.981H8.391v-.475a1.474,1.474,0,0,1,1.135-1.438l1.395-.333a.548.548,0,0,0,.42-.533v-.184a2.377,2.377,0,0,0,.612,0v.156c0,.008,0,.016,0,.024a.548.548,0,0,0,.445.539l.817.2Zm1.527-.85a2.569,2.569,0,0,0-.438-.148l-.978-.234v-.171a2.471,2.471,0,0,0,.475-.434,3.224,3.224,0,0,0,.942.944V11.9Zm2.378.8L16.2,14.165,15.56,12.7v-.391a3.209,3.209,0,0,0,1.283,0Zm-.636-1.424a2.105,2.105,0,0,1-2.1-2.1V8.6h.748a3.45,3.45,0,0,0,2.327-.9l1.129.663v.894A2.105,2.105,0,0,1,16.207,11.284Zm1.731.621v-.037a3.222,3.222,0,0,0,.95-.947,2.47,2.47,0,0,0,.471.429v.171l-.978.234A2.578,2.578,0,0,0,17.938,11.905Zm6.077,2.829H21.789a3.357,3.357,0,0,0-2.328-1.98l-.275-.066.821-.2a.548.548,0,0,0,.447-.539s0-.009,0-.013v-.168a2.377,2.377,0,0,0,.612,0v.184a.548.548,0,0,0,.42.533l1.395.333a1.474,1.474,0,0,1,1.135,1.438v.475Z" transform="translate(-7.296 -4.219)" fill="#409fd9"/>
    </g>
  </g>
  <g id="Group_19" data-name="Group 19" transform="translate(13.47 16.19)">
    <g id="Group_18" data-name="Group 18">
      <path id="Path_9" data-name="Path 9" d="M20.153,23.259a.548.548,0,1,0,.16.388A.552.552,0,0,0,20.153,23.259Z" transform="translate(-19.219 -23.099)" fill="#409fd9"/>
    </g>
  </g>
  <g id="Group_21" data-name="Group 21" transform="translate(13.469)">
    <g id="Group_20" data-name="Group 20">
      <path id="Path_10" data-name="Path 10" d="M19.766,0a.548.548,0,0,0-.548.548v.819a.548.548,0,1,0,1.1,0V.548A.548.548,0,0,0,19.766,0Z" transform="translate(-19.218)" fill="#409fd9"/>
    </g>
  </g>
  <g id="Group_23" data-name="Group 23" transform="translate(10.491 1.052)">
    <g id="Group_22" data-name="Group 22">
      <path id="Path_11" data-name="Path 11" d="M16.478,2.235,15.9,1.661a.548.548,0,1,0-.774.775l.574.574a.548.548,0,1,0,.774-.775Z" transform="translate(-14.969 -1.501)" fill="#409fd9"/>
    </g>
  </g>
  <g id="Group_25" data-name="Group 25" transform="translate(15.865 1.066)">
    <g id="Group_24" data-name="Group 24">
      <path id="Path_12" data-name="Path 12" d="M24.141,1.681a.548.548,0,0,0-.774,0l-.57.57a.548.548,0,1,0,.775.774l.57-.57A.548.548,0,0,0,24.141,1.681Z" transform="translate(-22.636 -1.521)" fill="#409fd9"/>
    </g>
  </g>
</svg>
