<svg xmlns="http://www.w3.org/2000/svg" xmlns:xlink="http://www.w3.org/1999/xlink" width="15.419" height="15.419" viewBox="0 0 15.419 15.419">
  <defs>
    <clipPath id="clip-path">
      <rect id="Rectangle_23" data-name="Rectangle 23" width="15.419" height="15.419" fill="#fff"/>
    </clipPath>
  </defs>
  <g id="Mask_Group_5" data-name="Mask Group 5" transform="translate(0 0)" clip-path="url(#clip-path)">
    <g id="twitter-logo-silhouette" transform="translate(0 1.447)">
      <g id="Group_43" data-name="Group 43" transform="translate(0 0)">
        <path id="Path_19" data-name="Path 19" d="M15.419,3.547a6.317,6.317,0,0,1-1.816.5A3.176,3.176,0,0,0,14.993,2.3a6.377,6.377,0,0,1-2.01.768,3.166,3.166,0,0,0-5.39,2.884,8.98,8.98,0,0,1-6.519-3.3,3.167,3.167,0,0,0,.979,4.222,3.163,3.163,0,0,1-1.433-.4v.04a3.166,3.166,0,0,0,2.537,3.1,3.2,3.2,0,0,1-.833.111,3.036,3.036,0,0,1-.6-.059,3.165,3.165,0,0,0,2.954,2.2A6.346,6.346,0,0,1,.754,13.21,6.722,6.722,0,0,1,0,13.167,8.941,8.941,0,0,0,4.848,14.59a8.937,8.937,0,0,0,9-9l-.011-.409A6.316,6.316,0,0,0,15.419,3.547Z" transform="translate(0 -2.065)" fill="#fff"/>
      </g>
    </g>
  </g>
</svg>
